<svg xmlns="http://www.w3.org/2000/svg" xmlns:xlink="http://www.w3.org/1999/xlink" width="791" zoomAndPan="magnify" viewBox="0 0 593.25 461.999983" height="616" preserveAspectRatio="xMidYMid meet" version="1.0"><defs><clipPath id="3a0dc9fc40"><path d="M 206.316406 318.128906 L 211.558594 318.128906 L 211.558594 323.371094 L 206.316406 323.371094 Z M 206.316406 318.128906 " clip-rule="nonzero"/></clipPath><clipPath id="a7e080af48"><path d="M 130.679688 0.292969 L 416 0.292969 L 416 397 L 130.679688 397 Z M 130.679688 0.292969 " clip-rule="nonzero"/></clipPath><clipPath id="9631109009"><path d="M 152 65 L 437 65 L 437 461.707031 L 152 461.707031 Z M 152 65 " clip-rule="nonzero"/></clipPath><clipPath id="d9f6e57d3b"><path d="M 322 0.292969 L 482.734375 0.292969 L 482.734375 336 L 322 336 Z M 322 0.292969 " clip-rule="nonzero"/></clipPath><clipPath id="86c47a1d0c"><path d="M 283 163 L 426 163 L 426 461.707031 L 283 461.707031 Z M 283 163 " clip-rule="nonzero"/></clipPath><clipPath id="c0fe7b3ecf"><path d="M 130.679688 163 L 273 163 L 273 461.707031 L 130.679688 461.707031 Z M 130.679688 163 " clip-rule="nonzero"/></clipPath><clipPath id="71dfe8cc1d"><path d="M 204 0.292969 L 299 0.292969 L 299 193 L 204 193 Z M 204 0.292969 " clip-rule="nonzero"/></clipPath><clipPath id="fde6b16395"><path d="M 326 0.292969 L 439 0.292969 L 439 229 L 326 229 Z M 326 0.292969 " clip-rule="nonzero"/></clipPath></defs><g clip-path="url(#3a0dc9fc40)"><path fill="#ffffff" d="M 206.328125 320.078125 C 206.472656 319.511719 206.796875 319.027344 207.234375 318.6875 C 207.671875 318.347656 208.21875 318.148438 208.804688 318.148438 C 208.898438 318.148438 208.992188 318.152344 209.085938 318.164062 C 209.179688 318.175781 209.273438 318.191406 209.367188 318.210938 L 209.351562 318.28125 C 209.261719 318.261719 209.171875 318.246094 209.078125 318.238281 C 208.988281 318.226562 208.898438 318.222656 208.804688 318.222656 C 208.234375 318.222656 207.703125 318.414062 207.28125 318.746094 C 206.855469 319.074219 206.539062 319.542969 206.398438 320.09375 Z M 209.582031 321.445312 C 209.480469 321.550781 209.359375 321.632812 209.226562 321.691406 C 209.09375 321.746094 208.953125 321.777344 208.804688 321.777344 C 208.644531 321.777344 208.484375 321.742188 208.34375 321.671875 C 208.199219 321.605469 208.070312 321.507812 207.96875 321.378906 L 208.027344 321.335938 C 208.121094 321.453125 208.238281 321.542969 208.375 321.609375 C 208.507812 321.671875 208.652344 321.703125 208.804688 321.703125 C 208.941406 321.703125 209.074219 321.675781 209.199219 321.625 C 209.320312 321.570312 209.433594 321.492188 209.53125 321.394531 Z M 208.890625 319.628906 C 209.171875 319.652344 209.417969 319.78125 209.59375 319.972656 C 209.773438 320.164062 209.878906 320.421875 209.878906 320.703125 C 209.878906 320.796875 209.867188 320.890625 209.84375 320.980469 C 209.820312 321.070312 209.78125 321.160156 209.734375 321.242188 L 209.671875 321.203125 C 209.71875 321.128906 209.75 321.046875 209.773438 320.960938 C 209.796875 320.878906 209.808594 320.789062 209.808594 320.703125 C 209.808594 320.441406 209.707031 320.199219 209.542969 320.023438 C 209.375 319.84375 209.144531 319.722656 208.886719 319.703125 Z M 207.800781 321.085938 C 207.777344 321.023438 207.757812 320.960938 207.746094 320.894531 C 207.734375 320.832031 207.730469 320.765625 207.730469 320.703125 C 207.730469 320.457031 207.808594 320.230469 207.949219 320.046875 C 208.089844 319.863281 208.289062 319.726562 208.523438 319.664062 L 208.542969 319.734375 C 208.324219 319.792969 208.136719 319.921875 208.007812 320.09375 C 207.878906 320.261719 207.800781 320.476562 207.800781 320.703125 C 207.800781 320.761719 207.808594 320.824219 207.816406 320.882812 C 207.828125 320.941406 207.84375 321 207.867188 321.058594 Z M 208.410156 319.4375 C 208.476562 319.417969 208.539062 319.402344 208.605469 319.394531 C 208.671875 319.382812 208.738281 319.378906 208.804688 319.378906 C 209.167969 319.378906 209.5 319.527344 209.742188 319.765625 C 209.980469 320.003906 210.128906 320.335938 210.128906 320.703125 C 210.128906 320.929688 210.070312 321.148438 209.960938 321.34375 C 209.855469 321.535156 209.699219 321.703125 209.507812 321.824219 L 209.429688 321.699219 C 209.601562 321.59375 209.738281 321.445312 209.835938 321.273438 C 209.929688 321.101562 209.980469 320.90625 209.980469 320.703125 C 209.980469 320.378906 209.851562 320.082031 209.636719 319.867188 C 209.425781 319.65625 209.128906 319.523438 208.804688 319.523438 C 208.746094 319.523438 208.683594 319.527344 208.628906 319.539062 C 208.566406 319.546875 208.511719 319.558594 208.453125 319.578125 Z M 208.804688 322.023438 C 208.4375 322.023438 208.109375 321.878906 207.867188 321.636719 C 207.628906 321.398438 207.480469 321.066406 207.480469 320.703125 C 207.480469 320.457031 207.546875 320.222656 207.667969 320.023438 C 207.789062 319.820312 207.964844 319.652344 208.179688 319.535156 L 208.246094 319.664062 C 208.054688 319.765625 207.898438 319.917969 207.792969 320.097656 C 207.6875 320.277344 207.625 320.484375 207.625 320.703125 C 207.625 321.027344 207.757812 321.320312 207.972656 321.535156 C 208.183594 321.75 208.480469 321.878906 208.804688 321.878906 Z M 208.804688 319.203125 C 209.21875 319.203125 209.59375 319.371094 209.863281 319.640625 C 210.132812 319.914062 210.300781 320.289062 210.300781 320.703125 C 210.300781 321.117188 210.132812 321.492188 209.863281 321.761719 C 209.59375 322.03125 209.21875 322.199219 208.804688 322.199219 C 208.390625 322.199219 208.015625 322.03125 207.746094 321.761719 C 207.472656 321.492188 207.304688 321.117188 207.304688 320.703125 C 207.304688 320.289062 207.472656 319.914062 207.746094 319.640625 C 208.015625 319.371094 208.390625 319.203125 208.804688 319.203125 Z M 209.8125 319.695312 C 209.554688 319.4375 209.199219 319.277344 208.804688 319.277344 C 208.410156 319.277344 208.054688 319.4375 207.796875 319.695312 C 207.539062 319.953125 207.378906 320.308594 207.378906 320.703125 C 207.378906 321.09375 207.539062 321.453125 207.796875 321.710938 C 208.054688 321.96875 208.410156 322.128906 208.804688 322.128906 C 209.199219 322.128906 209.554688 321.96875 209.8125 321.710938 C 210.070312 321.453125 210.230469 321.09375 210.230469 320.703125 C 210.230469 320.308594 210.070312 319.953125 209.8125 319.695312 Z M 207.113281 320.457031 C 207.160156 320.144531 207.285156 319.859375 207.476562 319.625 C 207.667969 319.390625 207.921875 319.203125 208.21875 319.097656 L 208.242188 319.164062 C 207.960938 319.269531 207.71875 319.445312 207.535156 319.671875 C 207.351562 319.894531 207.226562 320.167969 207.183594 320.464844 C 207.175781 320.542969 207.167969 320.621094 207.167969 320.703125 C 207.167969 321.152344 207.351562 321.5625 207.648438 321.859375 C 207.945312 322.15625 208.351562 322.339844 208.804688 322.339844 L 208.804688 322.410156 C 208.332031 322.410156 207.90625 322.21875 207.597656 321.910156 C 207.285156 321.601562 207.09375 321.175781 207.09375 320.703125 C 207.09375 320.621094 207.101562 320.539062 207.113281 320.457031 Z M 210.445312 321.175781 C 210.421875 321.265625 210.386719 321.355469 210.347656 321.4375 L 210.34375 321.4375 L 210.339844 321.449219 C 210.332031 321.464844 210.324219 321.484375 210.316406 321.5 L 210.308594 321.511719 L 210.304688 321.523438 C 210.292969 321.542969 210.28125 321.5625 210.269531 321.582031 L 210.265625 321.589844 L 210.261719 321.59375 L 210.253906 321.605469 L 210.25 321.613281 L 210.246094 321.617188 L 210.242188 321.625 L 210.238281 321.628906 L 210.230469 321.640625 L 210.226562 321.648438 L 210.226562 321.652344 L 210.21875 321.65625 L 210.21875 321.664062 L 210.203125 321.683594 L 210.199219 321.691406 L 210.195312 321.695312 L 210.179688 321.71875 L 210.167969 321.730469 L 210.167969 321.734375 L 210.160156 321.738281 L 210.160156 321.742188 L 210.152344 321.75 L 210.144531 321.761719 L 210.140625 321.765625 L 210.136719 321.773438 L 210.132812 321.773438 L 210.128906 321.78125 L 210.125 321.785156 L 210.121094 321.792969 L 210.101562 321.8125 L 210.101562 321.816406 L 210.09375 321.824219 L 210.085938 321.835938 L 210.082031 321.835938 L 210.074219 321.84375 L 210.066406 321.855469 L 210.058594 321.863281 L 210.054688 321.863281 L 210.046875 321.875 L 210.039062 321.882812 L 210.03125 321.894531 L 210.019531 321.902344 L 209.992188 321.929688 L 209.984375 321.941406 L 209.980469 321.941406 L 209.964844 321.957031 L 209.960938 321.957031 L 209.953125 321.964844 L 209.953125 321.96875 L 209.945312 321.976562 L 209.941406 321.976562 L 209.921875 321.996094 L 209.914062 322 L 209.894531 322.019531 L 209.890625 322.019531 L 209.875 322.035156 L 209.871094 322.035156 L 209.859375 322.046875 L 209.851562 322.050781 L 209.851562 322.054688 L 209.84375 322.058594 L 209.839844 322.0625 L 209.832031 322.066406 L 209.828125 322.070312 L 209.820312 322.074219 L 209.816406 322.078125 L 209.808594 322.082031 L 209.808594 322.085938 L 209.800781 322.089844 L 209.796875 322.09375 L 209.789062 322.097656 L 209.785156 322.101562 L 209.777344 322.105469 L 209.769531 322.113281 L 209.761719 322.117188 L 209.753906 322.125 L 209.746094 322.128906 L 209.742188 322.132812 L 209.734375 322.136719 L 209.730469 322.136719 L 209.722656 322.144531 L 209.71875 322.144531 L 209.710938 322.148438 L 209.707031 322.152344 L 209.699219 322.15625 L 209.695312 322.160156 L 209.6875 322.164062 L 209.683594 322.167969 L 209.675781 322.171875 L 209.671875 322.171875 L 209.667969 322.175781 L 209.660156 322.179688 L 209.65625 322.183594 L 209.648438 322.1875 L 209.644531 322.191406 L 209.636719 322.195312 L 209.632812 322.195312 L 209.621094 322.203125 L 209.613281 322.207031 L 209.609375 322.210938 L 209.601562 322.210938 L 209.597656 322.214844 L 209.589844 322.21875 L 209.585938 322.222656 L 209.578125 322.226562 L 209.574219 322.226562 L 209.566406 322.230469 L 209.5625 322.234375 L 209.554688 322.238281 L 209.550781 322.238281 L 209.542969 322.242188 L 209.539062 322.246094 L 209.53125 322.25 L 209.523438 322.25 L 209.519531 322.253906 L 209.511719 322.257812 L 209.507812 322.261719 L 209.5 322.261719 L 209.492188 322.265625 L 209.488281 322.269531 L 209.480469 322.269531 L 209.476562 322.273438 L 209.46875 322.277344 L 209.464844 322.277344 L 209.457031 322.28125 L 209.453125 322.285156 C 209.4375 322.289062 209.425781 322.292969 209.414062 322.296875 L 209.40625 322.300781 L 209.402344 322.304688 L 209.394531 322.304688 L 209.386719 322.308594 C 209.367188 322.316406 209.34375 322.324219 209.324219 322.332031 L 209.316406 322.332031 L 209.3125 322.335938 C 209.214844 322.363281 209.113281 322.386719 209.007812 322.398438 L 209 322.324219 C 209.09375 322.316406 209.1875 322.296875 209.277344 322.269531 C 209.296875 322.261719 209.320312 322.253906 209.339844 322.25 L 209.34375 322.246094 L 209.351562 322.246094 L 209.355469 322.242188 L 209.363281 322.238281 L 209.367188 322.238281 L 209.375 322.234375 L 209.386719 322.230469 L 209.394531 322.230469 L 209.398438 322.226562 L 209.40625 322.222656 L 209.410156 322.222656 L 209.425781 322.214844 L 209.429688 322.214844 L 209.433594 322.210938 L 209.441406 322.210938 L 209.449219 322.207031 L 209.453125 322.203125 L 209.460938 322.203125 L 209.464844 322.199219 L 209.472656 322.195312 L 209.476562 322.195312 L 209.484375 322.191406 L 209.488281 322.1875 L 209.496094 322.1875 L 209.5 322.183594 L 209.507812 322.179688 L 209.511719 322.175781 L 209.515625 322.175781 L 209.523438 322.171875 L 209.527344 322.167969 L 209.535156 322.167969 L 209.539062 322.164062 L 209.546875 322.160156 L 209.550781 322.15625 L 209.558594 322.15625 L 209.570312 322.148438 L 209.574219 322.144531 L 209.578125 322.144531 C 209.644531 322.109375 209.707031 322.070312 209.765625 322.027344 C 209.84375 321.96875 209.917969 321.902344 209.988281 321.832031 L 210.003906 321.816406 L 210.003906 321.8125 L 210.011719 321.804688 C 210.023438 321.792969 210.035156 321.78125 210.046875 321.765625 L 210.0625 321.75 L 210.0625 321.746094 L 210.070312 321.738281 L 210.070312 321.734375 L 210.078125 321.730469 L 210.082031 321.726562 L 210.089844 321.714844 L 210.097656 321.707031 L 210.101562 321.699219 L 210.105469 321.695312 L 210.121094 321.675781 L 210.125 321.667969 L 210.132812 321.660156 L 210.144531 321.636719 L 210.148438 321.632812 C 210.171875 321.601562 210.191406 321.566406 210.214844 321.535156 L 210.214844 321.53125 L 210.21875 321.523438 L 210.222656 321.519531 C 210.246094 321.480469 210.265625 321.4375 210.285156 321.394531 C 210.324219 321.316406 210.351562 321.238281 210.375 321.15625 Z M 208.503906 319.019531 C 208.554688 319.011719 208.605469 319.003906 208.652344 319 C 208.703125 318.996094 208.753906 318.992188 208.804688 318.992188 C 209.277344 318.992188 209.703125 319.183594 210.011719 319.492188 C 210.320312 319.804688 210.511719 320.230469 210.511719 320.703125 L 210.441406 320.703125 C 210.441406 320.25 210.257812 319.839844 209.960938 319.546875 C 209.664062 319.25 209.257812 319.066406 208.804688 319.066406 C 208.753906 319.066406 208.707031 319.066406 208.660156 319.070312 C 208.613281 319.078125 208.5625 319.082031 208.515625 319.089844 Z M 210.714844 320.285156 C 210.730469 320.351562 210.742188 320.421875 210.75 320.492188 C 210.757812 320.5625 210.761719 320.632812 210.761719 320.703125 C 210.761719 321.09375 210.644531 321.464844 210.4375 321.777344 C 210.230469 322.089844 209.9375 322.34375 209.578125 322.5 L 209.519531 322.367188 C 209.851562 322.222656 210.125 321.988281 210.316406 321.699219 C 210.507812 321.410156 210.617188 321.0625 210.617188 320.703125 C 210.617188 320.636719 210.613281 320.570312 210.605469 320.507812 C 210.597656 320.445312 210.585938 320.378906 210.574219 320.316406 Z M 208.875 322.65625 L 208.804688 322.660156 C 208.265625 322.660156 207.773438 322.4375 207.421875 322.085938 C 207.066406 321.730469 206.847656 321.242188 206.847656 320.703125 C 206.847656 320.160156 207.066406 319.671875 207.421875 319.320312 C 207.773438 318.964844 208.265625 318.746094 208.804688 318.746094 C 209.195312 318.746094 209.566406 318.863281 209.882812 319.070312 C 210.195312 319.277344 210.449219 319.574219 210.601562 319.933594 L 210.46875 319.988281 C 210.328125 319.65625 210.09375 319.382812 209.800781 319.191406 C 209.511719 319 209.167969 318.890625 208.804688 318.890625 C 208.304688 318.890625 207.851562 319.09375 207.523438 319.421875 C 207.195312 319.75 206.992188 320.203125 206.992188 320.703125 C 206.992188 321.203125 207.195312 321.65625 207.523438 321.984375 C 207.851562 322.308594 208.304688 322.511719 208.804688 322.511719 L 208.871094 322.511719 Z M 206.796875 319.890625 C 206.960938 319.480469 207.242188 319.140625 207.59375 318.90625 C 207.941406 318.667969 208.363281 318.535156 208.804688 318.535156 C 208.980469 318.535156 209.15625 318.554688 209.324219 318.597656 C 209.496094 318.640625 209.660156 318.703125 209.816406 318.785156 L 209.75 318.914062 C 209.601562 318.835938 209.449219 318.777344 209.289062 318.738281 C 209.132812 318.699219 208.96875 318.679688 208.804688 318.679688 C 208.390625 318.679688 208 318.804688 207.675781 319.027344 C 207.347656 319.246094 207.082031 319.5625 206.929688 319.945312 Z M 210.339844 319.175781 C 210.542969 319.378906 210.699219 319.617188 210.808594 319.875 C 210.914062 320.136719 210.972656 320.417969 210.972656 320.703125 C 210.972656 321.027344 210.898438 321.339844 210.765625 321.628906 C 210.628906 321.914062 210.429688 322.167969 210.179688 322.375 L 210.089844 322.261719 C 210.324219 322.070312 210.507812 321.832031 210.632812 321.566406 C 210.757812 321.300781 210.828125 321.003906 210.828125 320.703125 C 210.828125 320.433594 210.773438 320.171875 210.675781 319.929688 C 210.574219 319.6875 210.425781 319.464844 210.238281 319.277344 Z M 209.945312 322.546875 C 209.773438 322.652344 209.585938 322.730469 209.398438 322.785156 C 209.203125 322.839844 209.003906 322.871094 208.804688 322.871094 C 208.207031 322.871094 207.664062 322.625 207.273438 322.234375 C 206.878906 321.84375 206.636719 321.300781 206.636719 320.703125 L 206.640625 320.601562 L 206.785156 320.609375 L 206.78125 320.65625 L 206.78125 320.703125 C 206.78125 321.261719 207.007812 321.765625 207.375 322.132812 C 207.742188 322.496094 208.246094 322.722656 208.804688 322.722656 C 208.992188 322.722656 209.179688 322.699219 209.355469 322.648438 C 209.535156 322.597656 209.707031 322.519531 209.867188 322.421875 Z M 211.144531 321.136719 C 211.039062 321.699219 210.738281 322.1875 210.324219 322.53125 C 209.910156 322.875 209.375 323.082031 208.804688 323.082031 C 208.488281 323.082031 208.175781 323.015625 207.890625 322.898438 C 207.601562 322.777344 207.339844 322.601562 207.117188 322.378906 L 207.21875 322.273438 C 207.429688 322.484375 207.675781 322.652344 207.945312 322.761719 C 208.214844 322.875 208.507812 322.933594 208.804688 322.933594 C 209.34375 322.933594 209.84375 322.742188 210.230469 322.417969 C 210.621094 322.09375 210.902344 321.640625 211 321.109375 Z M 206.769531 321.933594 C 206.660156 321.75 206.570312 321.550781 206.515625 321.34375 C 206.457031 321.132812 206.425781 320.917969 206.425781 320.703125 C 206.425781 320.046875 206.691406 319.449219 207.121094 319.019531 C 207.554688 318.589844 208.148438 318.324219 208.804688 318.324219 C 209.460938 318.324219 210.054688 318.589844 210.484375 319.019531 C 210.917969 319.449219 211.183594 320.046875 211.183594 320.703125 L 211.039062 320.703125 C 211.039062 320.085938 210.785156 319.527344 210.382812 319.125 C 209.980469 318.71875 209.421875 318.46875 208.804688 318.46875 C 208.1875 318.46875 207.628906 318.71875 207.226562 319.125 C 206.820312 319.527344 206.570312 320.085938 206.570312 320.703125 C 206.570312 320.90625 206.597656 321.109375 206.652344 321.304688 C 206.707031 321.5 206.789062 321.6875 206.894531 321.859375 Z M 209.984375 318.4375 C 210.355469 318.632812 210.664062 318.90625 210.894531 319.238281 C 211.125 319.566406 211.28125 319.953125 211.335938 320.363281 L 211.261719 320.375 C 211.210938 319.972656 211.0625 319.601562 210.835938 319.277344 C 210.609375 318.957031 210.308594 318.691406 209.953125 318.503906 Z M 211.335938 321.027344 C 211.253906 321.664062 210.941406 322.222656 210.488281 322.621094 C 210.039062 323.015625 209.445312 323.253906 208.804688 323.253906 C 208.210938 323.253906 207.652344 323.050781 207.214844 322.699219 C 206.773438 322.347656 206.449219 321.851562 206.316406 321.273438 L 206.386719 321.257812 C 206.515625 321.820312 206.832031 322.300781 207.257812 322.640625 C 207.6875 322.984375 208.226562 323.183594 208.804688 323.183594 C 209.429688 323.183594 210.003906 322.949219 210.441406 322.566406 C 210.882812 322.179688 211.183594 321.636719 211.265625 321.019531 Z M 211.335938 321.027344 " fill-opacity="1" fill-rule="nonzero"/></g><g clip-path="url(#a7e080af48)"><path fill="#ffb911" d="M 309.351562 0.296875 L 415.511719 0.296875 L 236.835938 396.917969 L 130.679688 396.917969 Z M 309.351562 0.296875 " fill-opacity="1" fill-rule="evenodd"/></g><g clip-path="url(#9631109009)"><path fill="#fec63f" d="M 330.753906 65.082031 L 436.914062 65.082031 L 258.238281 461.703125 L 152.082031 461.703125 Z M 330.753906 65.082031 " fill-opacity="1" fill-rule="evenodd"/></g><g clip-path="url(#d9f6e57d3b)"><path fill="#ffb911" d="M 473.328125 0.296875 L 483.082031 0.296875 L 332.730469 335.222656 L 322.976562 335.222656 Z M 473.328125 0.296875 " fill-opacity="1" fill-rule="evenodd"/></g><g clip-path="url(#86c47a1d0c)"><path fill="#ffb911" d="M 417.445312 163.421875 L 425.574219 163.421875 L 292.042969 461.703125 L 283.917969 461.703125 Z M 417.445312 163.421875 " fill-opacity="1" fill-rule="evenodd"/></g><g clip-path="url(#c0fe7b3ecf)"><path fill="#fec63f" d="M 264.207031 163.421875 L 272.335938 163.421875 L 138.804688 461.703125 L 130.679688 461.703125 Z M 264.207031 163.421875 " fill-opacity="1" fill-rule="evenodd"/></g><g clip-path="url(#71dfe8cc1d)"><path fill="#ffb911" d="M 288.992188 0.296875 L 298.746094 0.296875 L 213.921875 192.472656 L 204.171875 192.472656 Z M 288.992188 0.296875 " fill-opacity="1" fill-rule="evenodd"/></g><g clip-path="url(#fde6b16395)"><path fill="#ffb911" d="M 428.367188 0.296875 L 438.121094 0.296875 L 336.617188 228.421875 L 326.867188 228.421875 Z M 428.367188 0.296875 " fill-opacity="1" fill-rule="evenodd"/></g></svg>